HIERARCHY
ROOT SimulationBone
{
	OFFSET 0.000000 0.000000 0.000000
	CHANNELS 6 Xposition Yposition Zposition Zrotation Yrotation Xrotation 
	JOINT Hips
	{
		OFFSET 0.000000 0.000000 0.000000
		CHANNELS 6 Xposition Yposition Zposition Zrotation Yrotation Xrotation 
		JOINT RightUpLeg
		{
			OFFSET 0.103458 1.857820 10.548502
			CHANNELS 3 Zrotation Yrotation Xrotation
			JOINT RightLeg
			{
				OFFSET 43.500000 -0.000023 -0.000011
				CHANNELS 3 Zrotation Yrotation Xrotation
				JOINT RightFoot
				{
					OFFSET 42.372192 0.000038 0.000002
					CHANNELS 3 Zrotation Yrotation Xrotation
					JOINT RightToe
					{
						OFFSET 17.299992 -0.000004 0.000006
						CHANNELS 3 Zrotation Yrotation Xrotation
						End Site
						{
							OFFSET 0.000000 0.000000 0.000000
						}
					}
				}
			}
		}
		JOINT LeftUpLeg
		{
			OFFSET 0.103461 1.857814 -10.548508
			CHANNELS 3 Zrotation Yrotation Xrotation
			JOINT LeftLeg
			{
				OFFSET 43.500042 -0.000015 0.000008
				CHANNELS 3 Zrotation Yrotation Xrotation
				JOINT LeftFoot
				{
					OFFSET 42.372253 0.000008 0.000006
					CHANNELS 3 Zrotation Yrotation Xrotation
					JOINT LeftToe
					{
						OFFSET 17.299973 -0.000014 0.000011
						CHANNELS 3 Zrotation Yrotation Xrotation
						End Site
						{
							OFFSET 0.000000 0.000000 0.000000
						}
					}
				}
			}
		}
		JOINT Spine
		{
			OFFSET 6.901966 -2.603737 -0.000007
			CHANNELS 3 Zrotation Yrotation Xrotation
			JOINT Spine1
			{
				OFFSET 12.588102 0.000017 0.000001
				CHANNELS 3 Zrotation Yrotation Xrotation
				JOINT Spine2
				{
					OFFSET 12.343197 -0.000013 0.000000
					CHANNELS 3 Zrotation Yrotation Xrotation
					JOINT Neck
					{
						OFFSET 25.832905 -0.000008 0.000000
						CHANNELS 3 Zrotation Yrotation Xrotation
						JOINT Head
						{
							OFFSET 11.766610 0.000009 -0.000002
							CHANNELS 3 Zrotation Yrotation Xrotation
							End Site
							{
								OFFSET 0.000000 0.000000 0.000000
							}
						}
					}
					JOINT RightShoulder
					{
						OFFSET 19.745903 -1.480377 6.000115
						CHANNELS 3 Zrotation Yrotation Xrotation
						JOINT RightArm
						{
							OFFSET 11.284125 -0.000014 -0.000024
							CHANNELS 3 Zrotation Yrotation Xrotation
							JOINT RightForeArm
							{
								OFFSET 33.000046 -0.000012 0.000029
								CHANNELS 3 Zrotation Yrotation Xrotation
								JOINT RightHand
								{
									OFFSET 25.199989 0.000034 0.000012
									CHANNELS 3 Zrotation Yrotation Xrotation
									End Site
									{
										OFFSET 0.000000 0.000000 0.000000
									}
								}
							}
						}
					}
					JOINT LeftShoulder
					{
						OFFSET 19.746098 -1.480362 -6.000071
						CHANNELS 3 Zrotation Yrotation Xrotation
						JOINT LeftArm
						{
							OFFSET 11.284137 -0.000006 -0.000008
							CHANNELS 3 Zrotation Yrotation Xrotation
							JOINT LeftForeArm
							{
								OFFSET 33.000095 0.000017 0.000000
								CHANNELS 3 Zrotation Yrotation Xrotation
								JOINT LeftHand
								{
									OFFSET 25.199778 0.000144 0.000423
									CHANNELS 3 Zrotation Yrotation Xrotation
									End Site
									{
										OFFSET 0.000000 0.000000 0.000000
									}
								}
							}
						}
					}
				}
			}
		}
	}
}
MOTION
Frames: 10
Frame Time: 0.033333
232.713110 0.000000 -296.497474 0.000000 -35.281521 0.000000 -18.461983 75.121338 -4.718963 62.149714 -15.068358 -167.382535 151.662561 -2.578197 -173.763482 -48.887724 -3.945443 -3.102684 92.277522 -0.833504 -22.695805 21.454557 0.003108 0.000016 137.774095 1.828996 -178.241709 -111.944512 -3.279517 5.376201 78.813751 -2.288573 5.232358 21.454548 -0.003094 0.000001 12.084657 -1.009614 0.079963 14.158329 -2.021310 0.035621 13.840023 -2.021192 0.047821 -19.390149 -28.258289 3.779375 -25.461229 12.884441 -12.259660 -89.879463 -87.356398 -92.061565 -83.586803 -0.185450 -29.004245 -99.716459 -1.849824 2.911101 -15.369218 -7.554955 43.565129 138.895339 72.628926 -40.608565 -28.586698 -62.037625 -2.367595 -82.984032 10.056180 -2.699669 -21.097843 12.497329 -55.546305 
236.024965 0.000000 -290.276282 0.000000 -37.311356 0.000000 -18.110840 78.172089 -4.141823 62.936876 -10.640869 -169.743178 162.475229 -9.388104 -175.105874 -34.540373 -4.509173 -4.751433 80.186441 -1.773582 -21.639875 21.454550 0.003108 0.000018 128.336154 0.904495 178.907503 -111.327603 -3.398513 7.428101 79.917066 -3.855967 4.908937 21.454539 -0.003095 0.000003 11.736402 -0.036417 -0.077554 13.460016 -0.063508 -0.158818 13.141920 -0.064598 -0.158438 -21.805133 -26.657924 5.560810 -24.057916 12.450365 -10.088434 -99.567766 -86.325286 -82.437071 -80.008433 0.888318 -24.587588 -86.554753 -8.885005 2.815170 -14.297040 -11.657304 37.407932 141.739730 73.701211 -37.640599 -12.549798 -64.607067 -18.803267 -87.109446 6.933663 -2.662227 -26.464637 10.656242 -56.079022 
239.415132 0.000000 -283.913527 0.000000 -39.313457 0.000000 -17.783162 80.737160 -3.734837 63.880660 -6.505894 -171.949477 172.489816 -15.454097 179.452798 -23.393903 -4.978904 -5.668047 67.931989 -2.380347 -18.530763 21.454558 0.003108 0.000018 119.929748 1.274988 177.082859 -105.614409 -2.767896 7.918489 82.082850 -4.269360 5.019264 21.454550 -0.003092 -0.000002 11.592144 0.922184 -0.369600 13.168049 1.880454 -0.631778 12.849777 1.876473 -0.643134 -23.034608 -22.717431 6.536112 -22.323614 11.642532 -7.272502 -120.583097 -85.460973 -61.408421 -74.235038 2.797466 -14.709910 -71.587575 -17.477013 2.767417 -13.909770 -13.606689 33.057982 142.313180 74.489633 -37.003168 -3.281229 -62.138554 -30.226784 -90.032651 5.141354 -2.666116 -28.174978 8.811920 -55.777842 
242.873529 0.000000 -277.418079 0.000000 -41.273064 0.000000 -17.419144 82.321442 -3.526344 64.240046 -4.259845 -174.460404 -179.589005 -18.156490 178.129489 -18.651891 -5.774019 -8.295872 62.465550 0.072155 -15.146035 21.454553 0.003105 0.000016 112.758261 2.573106 175.779672 -95.977504 -1.710681 8.934540 84.037773 -4.942284 5.669046 21.454568 -0.003085 0.000001 11.442981 1.422112 -0.744107 12.860347 2.918153 -1.325689 12.541908 2.909944 -1.343305 -23.938959 -16.588228 6.763086 -19.880804 7.928955 -2.998377 -152.145729 -84.466040 -29.687629 -64.094495 6.883781 -6.520710 -61.530668 -20.371601 2.558865 -13.625512 -14.414858 30.426082 142.365786 75.311688 -36.893110 -2.416465 -57.888824 -34.535048 -92.142496 4.055293 -2.683797 -29.209929 6.960583 -55.546336 
246.390076 0.000000 -270.798810 0.000000 -43.176990 0.000000 -16.773528 82.679932 -3.141237 65.735061 -2.719316 -177.905260 -173.625676 -18.645593 178.164009 -23.905913 -4.386879 -7.123035 67.583725 0.868800 -12.330390 21.454548 0.003109 0.000021 109.998837 2.809906 175.038952 -83.005807 1.214876 10.474933 86.106446 -6.014078 6.578886 21.454558 -0.003090 0.000001 11.745274 1.707478 -1.061670 13.454423 3.526861 -1.918076 13.135876 3.515082 -1.939362 -26.125231 -11.413985 7.118492 -18.006564 5.509993 0.215103 -160.961112 -82.022007 -20.829799 -52.308116 13.099543 0.515297 -59.832443 -20.502990 2.502015 -13.438136 -14.639286 27.374544 142.662776 75.069188 -36.608291 -5.234218 -52.403950 -34.258627 -94.914201 3.565123 -2.772762 -29.028027 5.665160 -53.030012 
249.954689 0.000000 -264.064590 0.000000 -45.013991 0.000000 -16.108629 81.795036 -3.036061 68.190560 -2.250419 178.035708 -169.654919 -15.496098 178.945560 -36.417404 -1.137637 -5.880092 70.156616 0.464304 -11.438178 21.454555 0.003108 0.000015 112.179894 2.199291 176.501186 -68.183299 2.918289 9.584650 87.157954 -5.284729 7.751612 21.454553 -0.003092 -0.000001 12.175996 1.599548 -1.187453 14.313539 3.333771 -2.168378 13.995111 3.320490 -2.188493 -24.810119 -7.896000 6.639000 -19.325993 3.608946 1.976767 -163.776680 -78.107332 -18.012891 -41.104567 19.946987 8.076396 -60.276754 -20.305053 2.505409 -14.716153 -14.889889 27.517307 144.516735 74.760532 -34.745603 -7.745189 -47.842289 -32.312703 -96.405395 3.321760 -2.822086 -27.118110 6.260859 -50.309059 
253.557288 0.000000 -257.224292 0.000000 -46.775004 0.000000 -15.652188 81.049332 -3.006918 70.378312 -0.654106 174.606079 -169.386028 -12.493701 -175.365380 -53.852203 -2.116645 -4.490570 70.802362 -0.310621 -10.901253 21.454555 0.003111 0.000019 118.520024 0.399003 -178.538071 -56.132124 4.197348 8.097008 78.124660 -5.390643 1.367434 21.454551 -0.003078 -0.000000 12.410745 1.711529 -0.789862 14.794721 3.510025 -1.354573 14.476082 3.501641 -1.375772 -21.837180 -6.129211 5.629707 -19.822126 2.141807 2.446692 -167.248411 -74.577709 -14.487922 -31.761510 27.353646 15.782241 -59.046835 -20.199827 2.450970 -14.602666 -14.914898 28.277728 153.233723 75.483651 -25.833906 -10.440519 -45.412688 -28.538439 -95.419478 3.334921 -2.779146 -24.309009 7.109277 -45.786709 
257.187789 0.000000 -250.286787 0.000000 -48.453249 0.000000 -14.906991 79.311119 -2.602280 72.495047 1.474141 172.251606 -171.610593 -9.957791 -173.573016 -73.891650 -1.799881 -1.846748 70.703994 -1.797912 -9.476756 21.454551 0.003110 0.000022 123.619006 -1.393194 -172.256893 -63.706178 2.845808 4.276903 88.206053 -3.228102 -1.572878 21.454555 -0.003080 0.000001 12.327641 1.984837 -0.334588 14.644059 3.995988 -0.415017 14.325133 3.993271 -0.439191 -17.100316 -6.335088 4.234771 -21.632923 1.880601 1.360189 -166.773494 -71.327611 -14.987124 -22.568031 35.135231 24.106085 -56.177927 -20.532904 2.366641 -14.495400 -14.236837 29.310606 160.964732 75.829279 -17.940981 -11.609774 -44.922724 -24.652849 -91.736059 3.911023 -2.655661 -19.396364 7.966545 -39.792067 
260.836111 0.000000 -243.260945 0.000000 -50.044206 0.000000 -14.435244 78.871323 -1.897952 73.366256 3.817750 170.668127 -178.850416 -9.610108 -177.746780 -93.223346 2.785941 -0.434429 72.506420 -1.944118 -6.665568 21.454553 0.003105 0.000013 130.214988 -4.925099 -172.646869 -65.362247 4.221376 3.598279 94.296875 -2.783645 -2.421352 21.454551 -0.003102 0.000000 12.141909 2.283731 0.073830 14.290760 4.540705 0.430095 13.971583 4.543088 0.402595 -14.091873 -6.279909 2.993219 -23.521216 0.710844 0.787233 -162.482428 -67.953511 -19.441777 -14.167831 42.727529 29.964293 -51.943131 -20.126182 2.188367 -13.897739 -14.279620 28.483434 165.310905 74.517589 -13.561403 -14.062268 -43.390232 -21.290876 -88.034875 5.994490 -2.637375 -13.341957 7.120196 -38.274188 
264.492173 0.000000 -236.155639 0.000000 -51.545496 0.000000 -14.043350 79.798576 -1.335566 74.047155 4.395049 170.287049 170.316668 -8.436500 -178.541705 -107.472105 4.425904 -1.971183 74.509694 -0.625265 -6.056897 21.454553 0.003108 0.000015 138.796069 -7.127109 -172.990906 -62.310962 3.218856 3.047516 98.526845 -2.300793 -2.522871 21.454555 -0.003080 -0.000000 12.035642 2.211292 0.330222 14.086420 4.365801 0.928380 13.767361 4.371172 0.901944 -14.491986 -7.388088 2.182484 -23.579748 1.426105 -0.713310 -156.750615 -65.492314 -25.422423 -5.999898 49.617800 34.604026 -47.693715 -18.292946 1.925365 -12.782504 -14.838931 26.201528 168.376608 73.971714 -10.446768 -14.966613 -42.760731 -15.923778 -92.126855 3.766530 -2.662910 -10.597687 2.955459 -41.156883 
